<svg xmlns="http://www.w3.org/2000/svg" viewBox="0 0 1900 110" preserveAspectRatio="xMinYMin meet">
<path xmlns="http://www.w3.org/2000/svg" fill-rule="evenodd" fill="rgb(0%, 0%, 0%)" fill-opacity="1" d="M 80.65625 55.371094 C 78.25 38.789062 80.632812 37.519531 95.90625 36.800781 C 125.746094 35.390625 155.527344 32.390625 185.339844 30.058594 C 216.816406 27.601562 248.257812 24.289062 279.773438 22.921875 C 331.9375 20.660156 384.140625 19.179688 436.347656 18.238281 C 522.910156 16.691406 609.472656 16.191406 696.019531 14.519531 C 750.058594 13.539062 804.058594 10.71875 858.101562 9.550781 C 935.25 7.871094 1012.410156 6.808594 1089.578125 5.800781 C 1128.46875 5.28125 1167.390625 4.390625 1206.238281 5.519531 C 1287.96875 7.910156 1369.75 10.351562 1451.359375 15.191406 C 1486.351562 17.261719 1520.878906 25.960938 1555.769531 30.488281 C 1573.28125 32.769531 1591.140625 32.480469 1608.828125 33.328125 C 1641.160156 34.910156 1673.46875 36.910156 1705.808594 37.898438 C 1731.550781 38.679688 1757.339844 37.730469 1783.058594 38.679688 C 1787.878906 38.859375 1793.800781 43.378906 1796.898438 47.601562 C 1801.21875 53.480469 1797.429688 57.949219 1791.019531 60.429688 C 1785.078125 62.710938 1779.351562 65.539062 1773.640625 70.179688 C 1783.730469 71.121094 1793.820312 72.050781 1803.929688 73.019531 C 1825.96875 75.140625 1848.050781 76.929688 1870.011719 79.710938 C 1873.96875 80.210938 1878.570312 84.03125 1880.878906 87.621094 C 1886.359375 96.128906 1882.820312 101.429688 1872.46875 100.878906 C 1851.550781 99.75 1830.679688 97.789062 1809.730469 97.160156 C 1773.851562 96.089844 1737.921875 96.070312 1702.039062 95.089844 C 1635.769531 93.269531 1569.53125 91.191406 1503.28125 89.03125 C 1461.648438 87.679688 1420.019531 86.390625 1378.421875 84.390625 C 1343.359375 82.699219 1308.371094 79.140625 1273.308594 78.058594 C 1245.488281 77.21875 1217.550781 78.210938 1189.730469 79.609375 C 1131.398438 82.558594 1073.148438 87.570312 1014.789062 89.210938 C 979.890625 90.179688 944.871094 85.929688 909.890625 84.800781 C 859.410156 83.171875 808.898438 81.078125 758.414062 81.328125 C 689.820312 81.691406 621.238281 84.910156 552.65625 85.320312 C 505.941406 85.609375 459.203125 82.851562 412.46875 82.089844 C 371.546875 81.429688 330.554688 80.28125 289.679688 81.789062 C 242.953125 83.511719 196.253906 87.210938 149.679688 91.460938 C 122.402344 93.949219 95.40625 99.441406 68.199219 103.011719 C 62.125 103.789062 53.382812 104.578125 49.949219 101.199219 C 40.328125 91.769531 29.136719 91.128906 17.214844 90.230469 C 8.644531 89.589844 3.414062 84.128906 6.585938 75.671875 C 8.179688 71.429688 13.734375 66.75 18.21875 65.839844 C 38.617188 61.679688 59.269531 58.828125 80.65625 55.371094 Z M 1550.058594 62.191406 C 1550.359375 61.148438 1550.640625 60.121094 1550.929688 59.078125 C 1549.511719 58.601562 1548.109375 57.878906 1546.660156 57.691406 C 1500.601562 51.800781 1454.691406 43.441406 1408.460938 40.699219 C 1342.398438 36.789062 1276.089844 36.730469 1209.890625 35.550781 C 1143.628906 34.359375 1077.359375 33.019531 1011.089844 33.210938 C 951.578125 33.378906 892.058594 35.328125 832.558594 36.898438 C 778.609375 38.320312 724.683594 40.441406 670.738281 41.988281 C 638.589844 42.898438 606.417969 43.289062 574.265625 43.929688 C 581.429688 46.390625 588.5625 45.871094 595.664062 46.160156 C 682.238281 49.820312 768.730469 52.488281 855.46875 49.28125 C 956.191406 45.539062 1057.039062 43.671875 1157.839844 43.691406 C 1226.558594 43.730469 1295.289062 47.859375 1363.96875 51.148438 C 1426.019531 54.109375 1488.03125 58.429688 1550.058594 62.160156 Z" transform="translate(0, 0)"/>
</svg>